<?xml version="1.0" encoding="UTF-8" standalone="no"?>
<!-- Created with Inkscape (http://www.inkscape.org/) -->

<svg
   xmlns:dc="http://purl.org/dc/elements/1.1/"
   xmlns:cc="http://creativecommons.org/ns#"
   xmlns:rdf="http://www.w3.org/1999/02/22-rdf-syntax-ns#"
   xmlns:svg="http://www.w3.org/2000/svg"
   xmlns="http://www.w3.org/2000/svg"
   xmlns:sodipodi="http://sodipodi.sourceforge.net/DTD/sodipodi-0.dtd"
   xmlns:inkscape="http://www.inkscape.org/namespaces/inkscape"
   version="1.1"
   id="svg2"
   xml:space="preserve"
   width="1700"
   height="1000"
   viewBox="0 0 1700 1000"
   sodipodi:docname="eye_bg.svg"
   inkscape:version="0.92.5 (2060ec1f9f, 2020-04-08)"><metadata
     id="metadata8"><rdf:RDF><cc:Work
         rdf:about=""><dc:format>image/svg+xml</dc:format><dc:type
           rdf:resource="http://purl.org/dc/dcmitype/StillImage" /><dc:title></dc:title></cc:Work></rdf:RDF></metadata><defs
     id="defs6" /><sodipodi:namedview
     pagecolor="#ffffff"
     bordercolor="#666666"
     borderopacity="1"
     objecttolerance="10"
     gridtolerance="10"
     guidetolerance="10"
     inkscape:pageopacity="0"
     inkscape:pageshadow="2"
     inkscape:window-width="1198"
     inkscape:window-height="692"
     id="namedview4"
     showgrid="false"
     inkscape:zoom="0.2"
     inkscape:cx="1136.9713"
     inkscape:cy="188.53736"
     inkscape:window-x="4223"
     inkscape:window-y="85"
     inkscape:window-maximized="0"
     inkscape:current-layer="g10" /><g
     id="g10"
     inkscape:groupmode="layer"
     inkscape:label="ink_ext_XXXXXX"
     transform="matrix(1.3333333,0,0,-1.3333333,0,1000)"><g
       id="g4574"
       transform="matrix(0.41255229,0,0,0.41255229,872.55985,154.22145)"><path
         d="m 690.897,238.375 c -13.66,0 -27.336,3.019 -37.792,9.056 l -260.14,150.191 c -20.906,12.07 -21.017,31.646 -0.24,43.72 10.39,6.038 24.032,9.056 37.693,9.056 13.657,0 27.333,-3.018 37.785,-9.053 L 728.342,291.153 c 20.912,-12.073 21.022,-31.648 0.246,-43.722 -10.389,-6.037 -24.031,-9.056 -37.691,-9.056"
         style="fill:#9dcae6;fill-opacity:1;fill-rule:nonzero;stroke:none;stroke-width:0.1"
         id="path16"
         inkscape:connector-curvature="0" /><path
         d="M 525.786,687.781 C 620.171,633.288 702.712,468.638 702.674,454.896 702.635,441.155 617.726,373.183 525.046,426.691 430.655,481.187 348.12,645.834 348.159,659.575 c 0.039,13.741 84.947,81.715 177.627,28.206"
         style="fill:#ffffff;fill-opacity:1;fill-rule:nonzero;stroke:none;stroke-width:0.1"
         id="path18"
         inkscape:connector-curvature="0" /><path
         d="m 525.703,664.465 c -48.642,28.084 -88.212,5.534 -88.37,-50.36 -0.159,-55.918 39.153,-123.985 87.797,-152.069 48.642,-28.084 88.211,-5.558 88.37,50.36 0.158,55.893 -39.154,123.985 -87.797,152.069"
         style="fill:#353b67;fill-opacity:1;fill-rule:nonzero;stroke:none;stroke-width:0.1"
         id="path20"
         inkscape:connector-curvature="0" /><path
         d="m 525.786,687.781 c -92.68,53.508 -177.588,-14.465 -177.627,-28.205 -0.003,-1.144 0.578,-3.353 1.678,-6.437 29.203,22.123 92.983,48.209 160.945,8.971 86.53,-49.958 163.093,-192.479 175.209,-226.448 10.622,8.047 16.672,15.569 16.683,19.234 0.039,13.742 -82.503,178.392 -176.888,232.885"
         style="fill:#000d2a;fill-opacity:1;fill-rule:nonzero;stroke:none;stroke-width:0.1"
         id="path22"
         inkscape:connector-curvature="0" /><path
         d="m 525.046,467.647 c -74.304,42.9 -141.251,154.042 -166.364,206.111 -6.762,-6.031 -10.515,-11.301 -10.523,-14.182 -0.039,-13.742 82.496,-178.389 176.887,-232.885 92.68,-53.509 177.589,14.464 177.628,28.205 0.008,2.924 -3.734,12.699 -10.523,26.774 -25.484,-22.729 -93.862,-56.31 -167.105,-14.023"
         style="fill:#5f72a1;fill-opacity:1;fill-rule:nonzero;stroke:none;stroke-width:0.1"
         id="path24"
         inkscape:connector-curvature="0" /><path
         d="m 773.148,496.077 c -0.005,0.083 -0.012,0.171 -0.021,0.262 -0.009,0.083 -0.019,0.171 -0.031,0.262 l -0.002,0.008 -0.002,0.018 c -0.014,0.101 -0.03,0.205 -0.049,0.314 -0.018,0.11 -0.04,0.223 -0.063,0.34 -0.018,0.088 -0.038,0.181 -0.059,0.274 l -0.009,0.04 -0.011,0.051 c -0.028,0.126 -0.058,0.256 -0.091,0.391 -0.034,0.135 -0.069,0.273 -0.107,0.415 l -0.073,0.269 -0.018,0.065 -0.029,0.107 c -0.094,0.335 -0.2,0.69 -0.317,1.064 l -0.032,0.1 c -0.057,0.178 -0.125,0.377 -0.186,0.564 -0.084,0.257 -0.16,0.501 -0.254,0.774 l -0.061,0.174 c -0.078,0.221 -0.164,0.459 -0.246,0.69 -0.087,0.247 -0.168,0.479 -0.262,0.738 -0.042,0.114 -0.088,0.236 -0.132,0.353 -0.035,0.095 -0.071,0.191 -0.108,0.288 -0.178,0.478 -0.365,0.967 -0.566,1.482 l -0.075,0.189 c -0.065,0.166 -0.136,0.342 -0.204,0.512 -0.185,0.465 -0.376,0.941 -0.576,1.432 -0.092,0.224 -0.185,0.449 -0.28,0.679 -0.076,0.183 -0.147,0.359 -0.225,0.547 -0.115,0.274 -0.241,0.567 -0.361,0.847 -0.118,0.279 -0.234,0.556 -0.357,0.842 -0.223,0.52 -0.457,1.058 -0.694,1.601 -0.108,0.244 -0.209,0.48 -0.319,0.729 l -0.073,0.167 c -0.109,0.247 -0.232,0.515 -0.344,0.765 -0.282,0.632 -0.566,1.267 -0.867,1.927 -0.171,0.377 -0.352,0.768 -0.529,1.154 -0.282,0.612 -0.567,1.228 -0.863,1.862 -0.078,0.166 -0.147,0.321 -0.226,0.489 -0.229,0.487 -0.466,0.987 -0.703,1.486 -0.077,0.164 -0.153,0.323 -0.232,0.489 -0.424,0.892 -0.864,1.806 -1.315,2.735 -0.116,0.24 -0.236,0.483 -0.354,0.724 -0.358,0.735 -0.724,1.48 -1.098,2.236 -0.135,0.273 -0.268,0.543 -0.405,0.818 -0.086,0.175 -0.169,0.345 -0.258,0.521 -0.243,0.486 -0.497,0.99 -0.746,1.484 -0.219,0.436 -0.433,0.866 -0.657,1.307 -0.36,0.711 -0.732,1.439 -1.104,2.166 -0.203,0.397 -0.401,0.785 -0.607,1.187 -0.506,0.984 -1.027,1.985 -1.555,2.997 -0.082,0.156 -0.159,0.307 -0.241,0.465 -0.587,1.121 -1.188,2.258 -1.8,3.411 l -0.087,0.163 c -0.1,0.185 -0.202,0.376 -0.302,0.562 -0.507,0.951 -1.022,1.911 -1.546,2.881 -0.191,0.356 -0.386,0.713 -0.58,1.071 -0.48,0.886 -0.968,1.781 -1.462,2.683 -0.169,0.308 -0.336,0.613 -0.507,0.923 -0.652,1.186 -1.315,2.384 -1.991,3.595 -0.128,0.23 -0.26,0.463 -0.39,0.694 -0.558,0.999 -1.125,2.006 -1.699,3.02 -0.216,0.381 -0.432,0.764 -0.65,1.148 -0.546,0.96 -1.099,1.926 -1.657,2.898 -0.18,0.314 -0.359,0.626 -0.54,0.942 -0.678,1.176 -1.363,2.358 -2.06,3.552 l -0.121,0.207 c -0.91,1.556 -1.835,3.127 -2.776,4.711 -0.176,0.296 -0.358,0.597 -0.535,0.894 -0.768,1.289 -1.543,2.583 -2.332,3.889 -0.34,0.562 -0.687,1.132 -1.031,1.697 -0.642,1.055 -1.285,2.111 -1.938,3.176 -0.389,0.632 -0.782,1.267 -1.175,1.902 -0.629,1.018 -1.262,2.036 -1.902,3.061 -0.409,0.653 -0.819,1.307 -1.232,1.964 -0.65,1.034 -1.308,2.071 -1.969,3.111 -0.408,0.641 -0.814,1.281 -1.226,1.925 -0.721,1.126 -1.45,2.255 -2.184,3.387 -0.359,0.554 -0.714,1.107 -1.076,1.662 -1.087,1.668 -2.185,3.341 -3.298,5.019 l -0.037,0.057 c -1.124,1.694 -2.264,3.393 -3.414,5.095 -0.076,0.114 -0.15,0.227 -0.228,0.34 -0.248,0.367 -0.505,0.736 -0.754,1.104 -0.895,1.318 -1.796,2.637 -2.707,3.959 -0.429,0.623 -0.862,1.246 -1.294,1.87 -0.84,1.21 -1.686,2.419 -2.538,3.63 -0.439,0.625 -0.877,1.249 -1.32,1.874 -0.961,1.357 -1.933,2.715 -2.909,4.072 -0.32,0.445 -0.637,0.891 -0.958,1.335 -1.293,1.788 -2.599,3.573 -3.916,5.356 l -0.184,0.251 c -0.153,0.207 -0.312,0.413 -0.466,0.62 -1.429,1.929 -2.876,3.853 -4.334,5.773 -0.363,0.476 -0.724,0.954 -1.088,1.432 -1.612,2.107 -3.238,4.209 -4.881,6.3 -0.097,0.123 -0.191,0.248 -0.287,0.371 -0.292,0.371 -0.59,0.736 -0.883,1.106 -1.024,1.294 -2.052,2.584 -3.088,3.87 -0.49,0.609 -0.982,1.217 -1.477,1.824 -1.014,1.249 -2.036,2.493 -3.061,3.733 -0.315,0.38 -0.622,0.763 -0.938,1.142 -0.151,0.182 -0.305,0.361 -0.458,0.542 -0.829,0.995 -1.666,1.983 -2.503,2.97 -0.506,0.599 -1.011,1.2 -1.521,1.797 -0.984,1.15 -1.977,2.292 -2.97,3.431 -0.335,0.384 -0.665,0.773 -1,1.156 l -0.111,0.125 c -1.22,1.388 -2.446,2.767 -3.679,4.138 -0.114,0.127 -0.226,0.256 -0.341,0.383 -1.348,1.496 -2.705,2.981 -4.068,4.453 l -0.091,0.098 c -0.558,0.604 -1.124,1.195 -1.685,1.795 -0.748,0.798 -1.495,1.601 -2.246,2.391 -0.614,0.644 -1.233,1.276 -1.849,1.915 -0.739,0.765 -1.476,1.536 -2.219,2.294 l -0.14,0.145 c -0.982,1 -1.97,1.985 -2.958,2.971 -0.294,0.294 -0.585,0.593 -0.88,0.885 -1.312,1.297 -2.628,2.583 -3.951,3.852 l -0.069,0.066 c -0.287,0.276 -0.577,0.543 -0.864,0.818 -1.042,0.993 -2.086,1.983 -3.135,2.958 -0.487,0.453 -0.977,0.894 -1.466,1.344 -0.722,0.663 -1.443,1.334 -2.169,1.988 -0.138,0.124 -0.278,0.244 -0.417,0.369 -0.455,0.409 -0.913,0.811 -1.369,1.216 -0.862,0.765 -1.724,1.526 -2.591,2.278 -0.509,0.443 -1.02,0.879 -1.532,1.318 -0.45,0.385 -0.898,0.778 -1.35,1.16 -0.394,0.333 -0.79,0.656 -1.186,0.986 -0.47,0.393 -0.939,0.784 -1.411,1.173 -0.914,0.754 -1.831,1.498 -2.749,2.234 -0.407,0.327 -0.813,0.658 -1.221,0.983 -0.139,0.109 -0.275,0.223 -0.414,0.332 -1.138,0.899 -2.279,1.783 -3.422,2.654 -0.239,0.182 -0.478,0.358 -0.718,0.539 -0.77,0.583 -1.542,1.168 -2.315,1.738 -0.303,0.224 -0.607,0.44 -0.911,0.662 -0.376,0.274 -0.753,0.546 -1.13,0.819 -1.051,0.758 -2.105,1.503 -3.159,2.236 -0.268,0.186 -0.533,0.376 -0.801,0.56 -0.099,0.067 -0.196,0.138 -0.295,0.206 -1.168,0.801 -2.339,1.581 -3.512,2.35 -0.294,0.193 -0.588,0.383 -0.881,0.574 -0.426,0.276 -0.851,0.557 -1.277,0.83 -0.763,0.487 -1.53,0.963 -2.296,1.436 -0.134,0.083 -0.269,0.17 -0.404,0.253 -0.999,0.615 -2,1.219 -3.003,1.809 -0.439,0.26 -0.88,0.515 -1.32,0.77 -1.22,0.704 -2.438,1.38 -3.655,2.042 -0.151,0.082 -0.302,0.172 -0.454,0.254 -0.247,0.133 -0.492,0.26 -0.738,0.391 -0.427,0.227 -0.853,0.453 -1.28,0.677 -0.477,0.249 -0.954,0.494 -1.43,0.737 -0.428,0.218 -0.854,0.434 -1.281,0.647 -0.198,0.099 -0.397,0.202 -0.595,0.3 -0.271,0.135 -0.543,0.261 -0.814,0.393 -0.441,0.215 -0.881,0.427 -1.322,0.636 -0.466,0.223 -0.933,0.44 -1.4,0.657 -0.439,0.203 -0.879,0.406 -1.318,0.604 -0.179,0.081 -0.358,0.166 -0.536,0.246 -0.259,0.116 -0.518,0.224 -0.777,0.337 -0.515,0.229 -1.032,0.454 -1.548,0.674 -0.426,0.184 -0.853,0.363 -1.28,0.541 -0.515,0.215 -1.029,0.426 -1.544,0.634 -0.218,0.088 -0.435,0.181 -0.653,0.268 -0.206,0.082 -0.412,0.159 -0.618,0.24 -0.515,0.202 -1.029,0.401 -1.542,0.596 -0.424,0.161 -0.847,0.322 -1.269,0.479 -0.514,0.189 -1.026,0.375 -1.538,0.558 -0.266,0.095 -0.532,0.197 -0.798,0.289 -0.141,0.05 -0.279,0.094 -0.42,0.143 -0.701,0.244 -1.401,0.48 -2.101,0.712 -0.298,0.099 -0.597,0.201 -0.895,0.298 -0.992,0.321 -1.982,0.633 -2.972,0.929 l -0.041,0.014 c -0.1,0.029 -0.2,0.057 -0.3,0.086 -0.894,0.266 -1.785,0.523 -2.675,0.769 -0.33,0.091 -0.659,0.178 -0.989,0.266 -0.684,0.185 -1.367,0.365 -2.048,0.537 -0.175,0.044 -0.35,0.094 -0.525,0.137 -0.159,0.04 -0.318,0.073 -0.478,0.113 -0.948,0.233 -1.893,0.455 -2.836,0.666 -0.172,0.038 -0.345,0.08 -0.517,0.119 -1.095,0.24 -2.186,0.463 -3.274,0.676 -0.101,0.02 -0.203,0.043 -0.304,0.063 -0.172,0.033 -0.343,0.059 -0.515,0.092 -0.951,0.179 -1.899,0.348 -2.845,0.506 -0.239,0.04 -0.478,0.083 -0.717,0.122 -1.12,0.181 -2.237,0.348 -3.35,0.5 l -0.247,0.038 c -0.127,0.016 -0.253,0.027 -0.38,0.045 -1.396,0.184 -2.787,0.352 -4.171,0.493 l -0.151,0.014 c -1.376,0.139 -2.745,0.252 -4.108,0.349 -0.106,0.008 -0.213,0.02 -0.318,0.026 l -0.134,0.008 c -1.629,0.11 -3.247,0.189 -4.856,0.24 -0.091,0.004 -0.183,0.008 -0.273,0.011 -1.655,0.05 -3.299,0.071 -4.931,0.063 l -0.092,10e-4 h -0.049 c -0.938,-0.006 -1.871,-0.024 -2.801,-0.047 -0.276,-0.008 -0.551,-0.019 -0.826,-0.028 -0.664,-0.021 -1.326,-0.046 -1.985,-0.076 -0.321,-0.014 -0.641,-0.031 -0.961,-0.048 -0.641,-0.034 -1.28,-0.072 -1.916,-0.114 -0.292,-0.019 -0.584,-0.038 -0.875,-0.058 -0.834,-0.061 -1.665,-0.128 -2.492,-0.204 l -0.205,-0.015 -0.025,-0.003 c -1.14,-0.105 -2.272,-0.228 -3.398,-0.359 -0.234,-0.027 -0.469,-0.053 -0.702,-0.082 -1.096,-0.132 -2.187,-0.275 -3.27,-0.431 -0.185,-0.028 -0.37,-0.057 -0.555,-0.084 -1.007,-0.149 -2.008,-0.308 -3.003,-0.477 -0.154,-0.025 -0.309,-0.051 -0.462,-0.076 -1.07,-0.186 -2.13,-0.383 -3.184,-0.59 -0.109,-0.021 -0.22,-0.039 -0.329,-0.06 l -0.237,-0.051 c -1.693,-0.339 -3.366,-0.701 -5.019,-1.092 l -0.174,-0.039 c -1.688,-0.4 -3.353,-0.829 -4.997,-1.279 -0.134,-0.036 -0.267,-0.075 -0.401,-0.112 -1.578,-0.435 -3.135,-0.893 -4.67,-1.372 -0.1,-0.03 -0.201,-0.061 -0.301,-0.092 -1.588,-0.499 -3.153,-1.018 -4.694,-1.556 l -0.118,-0.039 c -0.092,-0.032 -0.181,-0.068 -0.274,-0.101 -1.111,-0.391 -2.213,-0.791 -3.298,-1.202 l -0.187,-0.071 c -1.097,-0.417 -2.18,-0.843 -3.25,-1.277 l -0.194,-0.078 c -1.055,-0.429 -2.094,-0.869 -3.121,-1.314 -0.132,-0.058 -0.266,-0.114 -0.397,-0.171 -0.988,-0.432 -1.961,-0.87 -2.923,-1.315 -0.157,-0.072 -0.316,-0.144 -0.473,-0.218 -0.944,-0.44 -1.874,-0.885 -2.792,-1.334 -0.158,-0.078 -0.314,-0.156 -0.471,-0.233 -0.917,-0.454 -1.821,-0.912 -2.712,-1.375 -0.136,-0.071 -0.271,-0.142 -0.408,-0.214 -0.906,-0.475 -1.8,-0.953 -2.677,-1.435 -0.092,-0.051 -0.182,-0.102 -0.273,-0.152 -0.915,-0.506 -1.818,-1.016 -2.701,-1.529 l -0.009,-0.005 -70.479,-40.958 c 0.888,0.516 1.795,1.028 2.716,1.537 l 0.263,0.147 c 0.88,0.484 1.778,0.965 2.688,1.441 0.132,0.069 0.264,0.139 0.397,0.208 0.892,0.464 1.798,0.923 2.717,1.377 0.156,0.077 0.312,0.156 0.469,0.232 0.919,0.451 1.851,0.896 2.795,1.337 0.156,0.072 0.312,0.143 0.468,0.216 0.964,0.445 1.94,0.884 2.93,1.316 0.127,0.057 0.256,0.11 0.383,0.166 1.03,0.446 2.072,0.887 3.131,1.318 l 0.192,0.077 c 1.071,0.435 2.155,0.861 3.253,1.278 l 0.184,0.071 c 1.088,0.412 2.192,0.813 3.306,1.205 0.128,0.045 0.255,0.091 0.383,0.136 1.541,0.538 3.107,1.058 4.697,1.557 0.099,0.031 0.2,0.061 0.3,0.092 1.536,0.479 3.093,0.936 4.67,1.372 0.134,0.037 0.267,0.076 0.402,0.112 1.644,0.45 3.31,0.878 4.999,1.279 l 0.167,0.038 c 1.654,0.391 3.33,0.754 5.023,1.092 0.189,0.037 0.377,0.075 0.566,0.112 1.055,0.206 2.117,0.404 3.187,0.59 0.151,0.026 0.303,0.05 0.454,0.075 0.996,0.169 1.999,0.328 3.007,0.478 0.186,0.027 0.371,0.056 0.557,0.083 1.083,0.156 2.174,0.3 3.27,0.432 0.232,0.029 0.466,0.055 0.698,0.082 1.128,0.131 2.26,0.253 3.402,0.359 l 0.228,0.018 c 0.829,0.076 1.661,0.142 2.497,0.204 0.288,0.02 0.578,0.038 0.867,0.057 0.638,0.043 1.278,0.081 1.92,0.115 0.32,0.017 0.64,0.034 0.96,0.048 0.663,0.03 1.328,0.056 1.994,0.076 0.272,0.009 0.543,0.02 0.815,0.027 0.931,0.024 1.865,0.041 2.804,0.047 h 0.141 c 1.633,0.007 3.276,-0.012 4.932,-0.063 0.09,-0.003 0.181,-0.008 0.272,-0.011 1.61,-0.051 3.229,-0.131 4.859,-0.241 0.148,-0.01 0.297,-0.022 0.445,-0.033 1.365,-0.096 2.735,-0.211 4.112,-0.35 l 0.152,-0.013 c 1.383,-0.141 2.774,-0.309 4.17,-0.494 0.209,-0.028 0.418,-0.053 0.627,-0.082 1.115,-0.153 2.232,-0.319 3.353,-0.5 0.236,-0.04 0.472,-0.082 0.708,-0.121 0.948,-0.159 1.899,-0.329 2.853,-0.508 0.272,-0.051 0.544,-0.101 0.816,-0.155 1.089,-0.212 2.181,-0.435 3.276,-0.676 0.171,-0.038 0.343,-0.08 0.514,-0.118 0.944,-0.211 1.891,-0.434 2.839,-0.667 0.334,-0.082 0.668,-0.165 1.002,-0.25 0.681,-0.172 1.364,-0.351 2.048,-0.536 0.33,-0.089 0.66,-0.175 0.99,-0.266 0.889,-0.246 1.781,-0.502 2.674,-0.769 0.114,-0.034 0.228,-0.065 0.342,-0.1 0.989,-0.296 1.98,-0.608 2.973,-0.93 0.296,-0.096 0.593,-0.197 0.889,-0.296 0.702,-0.233 1.404,-0.469 2.107,-0.714 0.404,-0.141 0.809,-0.285 1.214,-0.431 0.513,-0.183 1.026,-0.369 1.541,-0.559 0.422,-0.156 0.845,-0.317 1.268,-0.479 0.513,-0.195 1.027,-0.393 1.542,-0.595 0.423,-0.167 0.847,-0.336 1.271,-0.508 0.515,-0.208 1.029,-0.42 1.545,-0.635 0.426,-0.178 0.853,-0.357 1.279,-0.539 0.516,-0.221 1.033,-0.447 1.549,-0.674 0.437,-0.193 0.874,-0.387 1.312,-0.584 0.44,-0.199 0.881,-0.402 1.321,-0.606 0.465,-0.216 0.93,-0.433 1.395,-0.654 0.442,-0.21 0.885,-0.423 1.327,-0.638 0.468,-0.229 0.936,-0.457 1.404,-0.692 0.428,-0.213 0.856,-0.429 1.284,-0.648 0.476,-0.242 0.952,-0.487 1.429,-0.736 0.427,-0.224 0.854,-0.45 1.282,-0.678 0.397,-0.212 0.793,-0.427 1.189,-0.643 1.218,-0.663 2.436,-1.339 3.656,-2.043 1.444,-0.834 2.885,-1.694 4.323,-2.578 0.136,-0.084 0.272,-0.172 0.409,-0.257 1.191,-0.736 2.38,-1.493 3.566,-2.262 0.295,-0.192 0.59,-0.382 0.884,-0.576 1.272,-0.834 2.54,-1.684 3.807,-2.555 0.267,-0.185 0.534,-0.375 0.801,-0.561 1.054,-0.732 2.106,-1.477 3.156,-2.234 0.378,-0.274 0.757,-0.547 1.135,-0.822 1.076,-0.787 2.15,-1.586 3.222,-2.397 0.24,-0.182 0.48,-0.357 0.719,-0.54 1.282,-0.978 2.561,-1.976 3.836,-2.987 0.409,-0.325 0.816,-0.656 1.224,-0.984 0.916,-0.735 1.832,-1.477 2.744,-2.23 0.473,-0.39 0.944,-0.782 1.415,-1.177 0.847,-0.707 1.691,-1.424 2.535,-2.144 0.511,-0.438 1.022,-0.875 1.532,-1.319 0.865,-0.75 1.726,-1.511 2.587,-2.274 0.459,-0.407 0.918,-0.81 1.375,-1.221 0.862,-0.774 1.72,-1.563 2.579,-2.351 0.49,-0.451 0.981,-0.894 1.471,-1.348 1.042,-0.969 2.079,-1.952 3.114,-2.94 0.295,-0.281 0.592,-0.555 0.887,-0.838 1.344,-1.291 2.683,-2.596 4.016,-3.916 0.299,-0.296 0.594,-0.599 0.892,-0.897 1.031,-1.027 2.061,-2.059 3.086,-3.102 0.748,-0.763 1.49,-1.54 2.234,-2.311 0.611,-0.634 1.226,-1.262 1.835,-1.901 0.752,-0.789 1.498,-1.592 2.246,-2.39 0.592,-0.632 1.187,-1.257 1.777,-1.894 1.364,-1.472 2.72,-2.957 4.07,-4.455 0.09,-0.099 0.179,-0.201 0.268,-0.301 1.257,-1.398 2.508,-2.804 3.752,-4.22 0.364,-0.415 0.723,-0.836 1.086,-1.252 1.002,-1.15 2.002,-2.301 2.994,-3.461 0.506,-0.59 1.006,-1.187 1.509,-1.779 0.842,-0.995 1.683,-1.987 2.518,-2.988 0.464,-0.555 0.923,-1.114 1.384,-1.673 1.03,-1.244 2.055,-2.492 3.074,-3.746 0.49,-0.603 0.979,-1.208 1.468,-1.813 1.04,-1.291 2.072,-2.587 3.1,-3.886 0.386,-0.488 0.774,-0.973 1.158,-1.462 1.646,-2.094 3.274,-4.199 4.887,-6.309 0.362,-0.473 0.721,-0.948 1.08,-1.421 1.463,-1.925 2.914,-3.855 4.348,-5.789 0.212,-0.286 0.427,-0.571 0.638,-0.857 1.32,-1.785 2.627,-3.574 3.922,-5.364 0.318,-0.438 0.628,-0.877 0.944,-1.315 0.981,-1.364 1.956,-2.726 2.922,-4.089 0.442,-0.624 0.88,-1.249 1.319,-1.873 0.851,-1.21 1.697,-2.421 2.537,-3.63 0.433,-0.624 0.865,-1.247 1.295,-1.87 0.908,-1.32 1.808,-2.636 2.701,-3.952 0.329,-0.485 0.663,-0.97 0.989,-1.454 1.15,-1.7 2.287,-3.398 3.411,-5.089 l 0.068,-0.105 c 1.102,-1.663 2.191,-3.321 3.268,-4.974 0.363,-0.555 0.717,-1.108 1.077,-1.662 0.732,-1.132 1.463,-2.261 2.183,-3.387 0.412,-0.644 0.82,-1.285 1.227,-1.925 0.661,-1.039 1.318,-2.076 1.968,-3.11 0.415,-0.658 0.826,-1.315 1.236,-1.971 0.638,-1.021 1.268,-2.036 1.895,-3.049 0.394,-0.638 0.789,-1.275 1.179,-1.91 0.653,-1.064 1.297,-2.119 1.938,-3.173 0.343,-0.566 0.691,-1.136 1.031,-1.699 0.788,-1.305 1.563,-2.6 2.332,-3.889 0.177,-0.296 0.358,-0.598 0.534,-0.893 0.941,-1.584 1.866,-3.155 2.776,-4.712 0.737,-1.261 1.463,-2.512 2.179,-3.754 0.185,-0.322 0.366,-0.639 0.55,-0.959 0.554,-0.963 1.101,-1.921 1.642,-2.871 0.222,-0.393 0.444,-0.785 0.665,-1.174 0.566,-1 1.124,-1.992 1.674,-2.976 0.137,-0.245 0.277,-0.492 0.412,-0.735 0.674,-1.208 1.336,-2.403 1.987,-3.586 0.171,-0.31 0.337,-0.614 0.505,-0.922 0.496,-0.904 0.986,-1.802 1.467,-2.691 0.193,-0.354 0.384,-0.706 0.574,-1.057 0.525,-0.974 1.042,-1.938 1.55,-2.89 0.099,-0.186 0.202,-0.376 0.299,-0.56 0.644,-1.21 1.275,-2.404 1.89,-3.579 0.069,-0.132 0.134,-0.259 0.203,-0.391 0.542,-1.037 1.074,-2.062 1.594,-3.07 0.202,-0.395 0.395,-0.776 0.596,-1.165 0.375,-0.734 0.75,-1.467 1.113,-2.184 0.224,-0.444 0.44,-0.877 0.661,-1.314 0.336,-0.67 0.673,-1.34 0.998,-1.994 0.138,-0.278 0.272,-0.55 0.408,-0.826 0.371,-0.751 0.736,-1.492 1.092,-2.222 0.12,-0.246 0.243,-0.496 0.361,-0.741 0.451,-0.928 0.89,-1.84 1.315,-2.732 0.076,-0.161 0.149,-0.316 0.224,-0.476 0.321,-0.674 0.63,-1.334 0.935,-1.985 0.296,-0.633 0.579,-1.248 0.86,-1.857 0.178,-0.388 0.361,-0.782 0.533,-1.161 0.298,-0.656 0.583,-1.29 0.864,-1.919 0.138,-0.311 0.284,-0.633 0.419,-0.938 0.109,-0.248 0.211,-0.484 0.318,-0.728 0.237,-0.543 0.472,-1.082 0.694,-1.601 0.123,-0.286 0.24,-0.562 0.358,-0.841 0.201,-0.474 0.398,-0.944 0.587,-1.399 0.094,-0.227 0.186,-0.451 0.277,-0.673 0.201,-0.492 0.393,-0.969 0.578,-1.435 0.068,-0.17 0.139,-0.345 0.203,-0.511 0.228,-0.58 0.441,-1.135 0.641,-1.669 0.037,-0.099 0.074,-0.197 0.109,-0.293 0.14,-0.376 0.265,-0.728 0.391,-1.08 0.083,-0.235 0.171,-0.476 0.248,-0.7 0.113,-0.328 0.213,-0.632 0.313,-0.937 0.062,-0.192 0.131,-0.394 0.188,-0.575 0.143,-0.451 0.27,-0.875 0.379,-1.269 l 0.018,-0.066 c 0.111,-0.407 0.207,-0.783 0.282,-1.125 l 0.009,-0.04 c 0.076,-0.347 0.133,-0.661 0.172,-0.942 l 10e-4,-0.012 c 0.039,-0.285 0.059,-0.534 0.059,-0.747 -10e-4,-0.142 -0.013,-0.292 -0.031,-0.446 l -0.009,-0.071 c -0.02,-0.149 -0.049,-0.302 -0.086,-0.46 l -0.021,-0.086 c -0.04,-0.16 -0.086,-0.325 -0.142,-0.495 l -0.027,-0.079 c -0.061,-0.178 -0.127,-0.36 -0.206,-0.547 -0.091,-0.223 -0.197,-0.452 -0.312,-0.688 l -0.068,-0.131 c -0.121,-0.24 -0.255,-0.486 -0.4,-0.739 l -0.147,-0.251 c -0.156,-0.26 -0.322,-0.526 -0.5,-0.799 l -0.079,-0.124 c -0.223,-0.333 -0.467,-0.676 -0.724,-1.027 l -0.192,-0.258 c -0.246,-0.326 -0.502,-0.658 -0.777,-0.997 l -0.086,-0.108 c -0.3,-0.369 -0.623,-0.748 -0.958,-1.132 -0.083,-0.095 -0.167,-0.189 -0.251,-0.285 -0.318,-0.359 -0.648,-0.722 -0.995,-1.092 l -0.1,-0.109 c -0.378,-0.4 -0.777,-0.808 -1.186,-1.219 -0.101,-0.101 -0.204,-0.202 -0.307,-0.305 -0.393,-0.389 -0.798,-0.783 -1.22,-1.181 l -0.099,-0.095 c -0.452,-0.426 -0.925,-0.857 -1.408,-1.291 -0.118,-0.106 -0.237,-0.212 -0.358,-0.319 -0.469,-0.416 -0.949,-0.833 -1.446,-1.257 l -0.09,-0.076 c -0.523,-0.445 -1.067,-0.893 -1.622,-1.342 -0.134,-0.11 -0.27,-0.22 -0.407,-0.329 -0.545,-0.437 -1.099,-0.876 -1.671,-1.317 l -0.073,-0.057 c -0.593,-0.456 -1.205,-0.915 -1.828,-1.375 -0.151,-0.112 -0.304,-0.223 -0.457,-0.335 -0.615,-0.451 -1.241,-0.902 -1.886,-1.355 l -0.057,-0.04 c -0.658,-0.462 -1.336,-0.924 -2.022,-1.386 -0.169,-0.113 -0.338,-0.226 -0.508,-0.339 -0.688,-0.459 -1.386,-0.917 -2.1,-1.375 l -0.032,-0.02 c -0.721,-0.461 -1.461,-0.922 -2.21,-1.381 -0.185,-0.113 -0.371,-0.226 -0.558,-0.34 -0.758,-0.46 -1.526,-0.919 -2.311,-1.375 l 0.007,0.004 -0.007,-0.004 70.48,40.958 c 0.784,0.455 1.549,0.913 2.306,1.373 0.19,0.116 0.379,0.23 0.567,0.345 0.747,0.458 1.484,0.916 2.204,1.377 l 0.045,0.028 c 0.71,0.454 1.401,0.91 2.085,1.365 0.173,0.115 0.343,0.23 0.514,0.345 0.686,0.461 1.362,0.922 2.018,1.382 l 0.069,0.05 c 0.639,0.448 1.26,0.895 1.871,1.342 0.156,0.115 0.311,0.228 0.465,0.342 0.62,0.458 1.231,0.915 1.821,1.369 l 0.092,0.072 c 0.566,0.435 1.113,0.869 1.651,1.301 0.138,0.112 0.278,0.223 0.416,0.336 0.552,0.448 1.094,0.894 1.616,1.338 l 0.098,0.083 c 0.495,0.42 0.972,0.837 1.439,1.252 0.12,0.106 0.241,0.213 0.359,0.32 0.484,0.432 0.954,0.863 1.406,1.288 l 0.106,0.101 c 0.419,0.396 0.821,0.788 1.213,1.174 0.104,0.104 0.208,0.207 0.311,0.309 0.409,0.411 0.806,0.818 1.183,1.217 l 0.101,0.11 c 0.346,0.368 0.675,0.731 0.993,1.09 0.085,0.096 0.171,0.192 0.254,0.288 0.334,0.383 0.656,0.761 0.957,1.13 l 0.088,0.111 c 0.273,0.339 0.53,0.669 0.774,0.995 l 0.192,0.258 c 0.257,0.35 0.501,0.693 0.723,1.026 l 0.019,0.027 0.062,0.099 c 0.179,0.272 0.344,0.538 0.499,0.797 l 0.148,0.252 c 0.143,0.251 0.277,0.496 0.397,0.735 l 0.057,0.104 0.014,0.032 c 0.116,0.235 0.22,0.464 0.312,0.686 l 0.003,0.006 c 0.049,0.117 0.094,0.232 0.135,0.345 l 0.067,0.196 0.027,0.079 0.021,0.058 c 0.035,0.11 0.066,0.217 0.095,0.323 l 0.027,0.114 0.02,0.086 0.027,0.109 c 0.021,0.102 0.039,0.201 0.054,0.297 l 0.006,0.055 0.008,0.069 0.019,0.161 c 0.008,0.092 0.011,0.183 0.012,0.272 v 0.014 l -0.005,0.223"
         style="fill:#5f72a1;fill-opacity:1;fill-rule:nonzero;stroke:none;stroke-width:0.1"
         id="path26"
         inkscape:connector-curvature="0" /><path
         d="m 525.551,610.822 c -22.863,13.199 -41.461,2.602 -41.536,-23.67 -0.074,-26.283 18.404,-58.276 41.266,-71.475 22.864,-13.2 41.461,-2.614 41.537,23.67 0.074,26.27 -18.404,58.275 -41.267,71.475"
         style="fill:#000d2a;fill-opacity:1;fill-rule:nonzero;stroke:none;stroke-width:0.1"
         id="path28"
         inkscape:connector-curvature="0" /><path
         d="m 549.718,607.698 c -9.711,5.606 -17.609,1.105 -17.641,-10.053 -0.032,-11.163 7.816,-24.751 17.526,-30.357 9.711,-5.606 17.61,-1.11 17.641,10.053 0.032,11.158 -7.816,24.751 -17.526,30.357"
         style="fill:#ffffff;fill-opacity:1;fill-rule:nonzero;stroke:none;stroke-width:0.1"
         id="path30"
         inkscape:connector-curvature="0" /><path
         d="m 427.782,836.278 -68.208,39.381 c -7.825,4.518 -14.214,0.877 -14.24,-8.145 l -0.263,-92.66 c -0.025,-9.021 6.322,-20.015 14.148,-24.534 7.851,-4.532 14.24,-0.892 14.265,8.13 l 0.218,76.349 53.988,-31.17 c 7.852,-4.533 14.241,-0.922 14.266,8.1 0.026,9.023 -6.322,20.017 -14.174,24.549"
         style="fill:#000d2a;fill-opacity:1;fill-rule:nonzero;stroke:none;stroke-width:0.1"
         id="path32"
         inkscape:connector-curvature="0" /><path
         d="m 426.67,444.013 -53.988,31.17 0.216,76.349 c 0.026,9.022 -6.322,20.016 -14.173,24.549 -7.826,4.519 -14.215,0.878 -14.241,-8.144 l -0.262,-92.659 c -0.026,-9.022 6.322,-20.016 14.148,-24.535 l 68.208,-39.38 c 7.852,-4.533 14.24,-0.892 14.266,8.13 0.025,9.022 -6.322,19.986 -14.174,24.52"
         style="fill:#000d2a;fill-opacity:1;fill-rule:nonzero;stroke:none;stroke-width:0.1"
         id="path34"
         inkscape:connector-curvature="0" /><path
         d="m 676.039,692.948 -68.182,39.365 c -7.852,4.534 -14.241,0.892 -14.267,-8.13 -0.025,-9.022 6.322,-19.987 14.174,-24.519 l 53.989,-31.172 -0.217,-76.348 c -0.026,-9.022 6.323,-20.016 14.148,-24.535 7.85,-4.532 14.241,-0.892 14.266,8.13 l 0.262,92.658 c 0.026,9.024 -6.321,20.018 -14.173,24.551"
         style="fill:#000d2a;fill-opacity:1;fill-rule:nonzero;stroke:none;stroke-width:0.1"
         id="path36"
         inkscape:connector-curvature="0" /><path
         d="m 675.19,393.37 c -7.826,4.52 -14.214,0.877 -14.241,-8.144 l -0.216,-76.349 -53.989,31.17 c -7.851,4.533 -14.24,0.923 -14.265,-8.099 -0.027,-9.023 6.321,-20.017 14.172,-24.551 l 68.184,-39.365 c 7.851,-4.533 14.239,-0.892 14.266,8.13 l 0.262,92.659 c 0.026,9.022 -6.321,20.016 -14.173,24.549"
         style="fill:#000d2a;fill-opacity:1;fill-rule:nonzero;stroke:none;stroke-width:0.1"
         id="path38"
         inkscape:connector-curvature="0" /></g><text
       xml:space="preserve"
       style="font-style:normal;font-variant:normal;font-weight:normal;font-stretch:normal;font-size:10px;line-height:1.25;font-family:Chilanka;-inkscape-font-specification:Chilanka;letter-spacing:0px;word-spacing:0px;fill:#000000;fill-opacity:1;stroke:none;stroke-width:0.75"
       x="985.22388"
       y="-219.9245"
       id="text4597"
       transform="scale(1,-1)"><tspan
         sodipodi:role="line"
         id="tspan4595"
         x="985.22388"
         y="-219.9245"
         style="stroke-width:0.75">http://www.freepik.com&quot; Designed by rawpixel.com</tspan></text>
</g></svg>