<?xml version="1.0" encoding="UTF-8" standalone="no"?>
<!-- Created with Inkscape (http://www.inkscape.org/) -->

<svg
   xmlns:dc="http://purl.org/dc/elements/1.1/"
   xmlns:cc="http://creativecommons.org/ns#"
   xmlns:rdf="http://www.w3.org/1999/02/22-rdf-syntax-ns#"
   xmlns:svg="http://www.w3.org/2000/svg"
   xmlns="http://www.w3.org/2000/svg"
   xmlns:sodipodi="http://sodipodi.sourceforge.net/DTD/sodipodi-0.dtd"
   xmlns:inkscape="http://www.inkscape.org/namespaces/inkscape"
   version="1.1"
   id="svg2"
   xml:space="preserve"
   width="960"
   height="720"
   viewBox="0 0 960 720"
   sodipodi:docname="workflow.svg"
   inkscape:version="0.92.5 (2060ec1f9f, 2020-04-08)"><metadata
     id="metadata8"><rdf:RDF><cc:Work
         rdf:about=""><dc:format>image/svg+xml</dc:format><dc:type
           rdf:resource="http://purl.org/dc/dcmitype/StillImage" /><dc:title></dc:title></cc:Work></rdf:RDF></metadata><defs
     id="defs6"><clipPath
       clipPathUnits="userSpaceOnUse"
       id="clipPath20"><path
         d="M 0,0 H 365760 V 274320 H 0 Z"
         id="path18"
         inkscape:connector-curvature="0" /></clipPath></defs><sodipodi:namedview
     pagecolor="#ffffff"
     bordercolor="#666666"
     borderopacity="1"
     objecttolerance="10"
     gridtolerance="10"
     guidetolerance="10"
     inkscape:pageopacity="0"
     inkscape:pageshadow="2"
     inkscape:window-width="1848"
     inkscape:window-height="1043"
     id="namedview4"
     showgrid="false"
     inkscape:zoom="0.76164757"
     inkscape:cx="480"
     inkscape:cy="360"
     inkscape:window-x="3912"
     inkscape:window-y="0"
     inkscape:window-maximized="1"
     inkscape:current-layer="g10" /><g
     id="g10"
     inkscape:groupmode="layer"
     inkscape:label="Analysis of LCMS based metabolomics data"
     transform="matrix(1.3333333,0,0,-1.3333333,0,720)"><g
       transform="matrix(0.7499985,0,0,-0.7499985,1.9694148,540.98471)"
       id="g46" /><g
       transform="matrix(0.7499985,0,0,-0.7499985,1.9694148,540.98471)"
       id="g66" /><g
       transform="matrix(0.7499985,0,0,-0.7499985,1.9694148,540.98471)"
       id="g90" /><g
       transform="matrix(0.7499985,0,0,-0.7499985,1.9694148,540.98471)"
       id="g114" /><g
       transform="matrix(0.7499985,0,0,-0.7499985,1.9694148,540.98471)"
       id="g134" /><g
       transform="matrix(0.7499985,0,0,-0.7499985,1.9694148,540.98471)"
       id="g158" /><g
       transform="matrix(0.7499985,0,0,-0.7499985,1.9694148,540.98471)"
       id="g182" /><g
       transform="matrix(0.7499985,0,0,-0.7499985,1.9694148,540.98471)"
       id="g206" /><g
       transform="matrix(0.7499985,0,0,-0.7499985,1.9694148,540.98471)"
       id="g234" /><g
       transform="matrix(0.7499985,0,0,-0.7499985,1.9694148,540.98471)"
       id="g254" /><g
       transform="matrix(0.7499985,0,0,-0.7499985,1.9694148,540.98471)"
       id="g278" /><g
       transform="matrix(0.7499985,0,0,-0.7499985,1.9694148,540.98471)"
       id="g422" /><g
       id="g2117"><g
         transform="matrix(0.0019685,0,0,-0.0019685,1.9694148,540.98471)"
         id="g28"><g
           id="g30"><path
             d="m 72407,16693.084 v 0 C 72407,14364.605 74294.6,12477 76623.086,12477 H 306318.9 c 1118.2,0 2190.57,444.193 2981.22,1234.862 790.68,790.669 1234.88,1863.047 1234.88,2981.222 v 16863.83 c 0,2328.481 -1887.6,4216.086 -4216.1,4216.086 H 76623.086 C 74294.6,37773 72407,35885.395 72407,33556.914 Z"
             style="fill:#bbd7f8;fill-opacity:1;fill-rule:evenodd;stroke:none"
             id="path32"
             inkscape:connector-curvature="0" /></g><path
           d="m 72407,16693.084 v 0 C 72407,14364.605 74294.6,12477 76623.086,12477 H 306318.9 c 1118.2,0 2190.57,444.193 2981.22,1234.862 790.68,790.669 1234.88,1863.047 1234.88,2981.222 v 16863.83 c 0,2328.481 -1887.6,4216.086 -4216.1,4216.086 H 76623.086 C 74294.6,37773 72407,35885.395 72407,33556.914 Z"
           style="fill:none;stroke:#2388db;stroke-width:381;stroke-linecap:butt;stroke-linejoin:round;stroke-miterlimit:8;stroke-dasharray:none;stroke-opacity:1"
           id="path34"
           inkscape:connector-curvature="0" /></g><g
         id="g36"
         transform="matrix(0.7499985,0,0,-0.7499985,1.9694148,540.98471)"><g
           id="g38"
           transform="translate(193.28569,35.989105)"><g
             id="g40"><text
               transform="translate(102.39075,36.875774)"
               style="font-variant:normal;font-weight:normal;font-size:18.66666603px;font-family:Arial;-inkscape-font-specification:ArialMT;writing-mode:lr-tb;fill:#000000;fill-opacity:1;fill-rule:nonzero;stroke:none"
               id="text44"><tspan
                 x="0 13.477333 23.855999 37.333332 42.503998 52.882664 63.26133 68.431999 78.810661 83.981331 94.359993 99.530663 104.70133 115.07999 120.25066 129.584 139.96266 155.51199 165.89066 170.03467 180.41333 185.584 195.96266 201.13333 216.68266 227.06133 232.23199 242.61066 252.98932 263.36798 267.51199 277.89066 293.44 297.58398 306.91733 316.25064 321.42133 331.79999 341.13333 351.51199 361.89066 368.10666 372.25064 387.79999 398.17865 408.55731"
                 y="0"
                 sodipodi:role="line"
                 id="tspan42">Raw data of a complete metabolomics experiment</tspan></text>
</g></g></g><g
         transform="matrix(0.0019685,0,0,-0.0019685,1.9694148,540.98471)"
         id="g48"><g
           id="g50"><path
             d="m 72407,61608.086 v 0 C 72407,59279.605 74294.6,57392 76623.086,57392 H 306318.9 c 1118.2,0 2190.57,444.19 2981.22,1234.863 790.68,790.667 1234.88,1863.047 1234.88,2981.223 V 78471.914 C 310535,80800.4 308647.4,82688 306318.9,82688 H 76623.086 C 74294.6,82688 72407,80800.4 72407,78471.914 Z"
             style="fill:#bbd7f8;fill-opacity:1;fill-rule:evenodd;stroke:none"
             id="path52"
             inkscape:connector-curvature="0" /></g><path
           d="m 72407,61608.086 v 0 C 72407,59279.605 74294.6,57392 76623.086,57392 H 306318.9 c 1118.2,0 2190.57,444.19 2981.22,1234.863 790.68,790.667 1234.88,1863.047 1234.88,2981.223 V 78471.914 C 310535,80800.4 308647.4,82688 306318.9,82688 H 76623.086 C 74294.6,82688 72407,80800.4 72407,78471.914 Z"
           style="fill:none;stroke:#2388db;stroke-width:381;stroke-linecap:butt;stroke-linejoin:round;stroke-miterlimit:8;stroke-dasharray:none;stroke-opacity:1"
           id="path54"
           inkscape:connector-curvature="0" /></g><g
         id="g56"
         transform="matrix(0.7499985,0,0,-0.7499985,1.9694148,540.98471)"><g
           id="g58"
           transform="translate(193.28569,153.87625)"><g
             id="g60"><text
               transform="translate(92.55246,36.875774)"
               style="font-variant:normal;font-weight:normal;font-size:18.66666603px;font-family:Arial;-inkscape-font-specification:ArialMT;writing-mode:lr-tb;fill:#000000;fill-opacity:1;fill-rule:nonzero;stroke:none"
               id="text64"><tspan
                 x="0 13.477333 23.855999 39.405331 49.783997 60.162666 70.541328 79.874664 90.253326 95.423996 105.80267 110.97333 116.144 126.52266 132.73866 143.08 158.62933 163.79999 173.13333 178.304 187.63733 198.01599 202.15999 207.33066 212.50133 221.83466 227.00533 240.48265 244.62666 249.79732 260.17599 265.34665 274.67999 285.05865 300.608 310.98666 316.15732 325.49066 335.86932 342.08533 347.25598 352.42667 362.80533 367.97598 373.14667 383.52533 387.66931 398.04797 408.42667 412.57065 422.94931"
                 y="0"
                 sodipodi:role="line"
                 id="tspan62">Compensate for m/z shifts with some sort of binning</tspan></text>
</g></g></g><g
         transform="matrix(0.0019685,0,0,-0.0019685,1.9694148,540.98471)"
         id="g68"><g
           id="g70"><path
             d="m 16128,119593.09 v 0 c 0,-2328.49 1887.605,-4216.09 4216.084,-4216.09 h 95379.826 c 1118.18,0 2190.56,444.2 2981.23,1234.86 790.67,790.67 1234.86,1863.05 1234.86,2981.23 v 16863.83 c 0,2328.47 -1887.6,4216.08 -4216.09,4216.08 H 20344.084 C 18015.605,140673 16128,138785.39 16128,136456.92 Z"
             style="fill:#ea9999;fill-opacity:1;fill-rule:evenodd;stroke:none"
             id="path72"
             inkscape:connector-curvature="0" /></g><path
           d="m 16128,119593.09 v 0 c 0,-2328.49 1887.605,-4216.09 4216.084,-4216.09 h 95379.826 c 1118.18,0 2190.56,444.2 2981.23,1234.86 790.67,790.67 1234.86,1863.05 1234.86,2981.23 v 16863.83 c 0,2328.47 -1887.6,4216.08 -4216.09,4216.08 H 20344.084 C 18015.605,140673 16128,138785.39 16128,136456.92 Z"
           style="fill:none;stroke:#2388db;stroke-width:381;stroke-linecap:butt;stroke-linejoin:round;stroke-miterlimit:8;stroke-dasharray:none;stroke-opacity:1"
           id="path74"
           inkscape:connector-curvature="0" /></g><g
         id="g76"
         transform="matrix(0.7499985,0,0,-0.7499985,1.9694148,540.98471)"><g
           id="g78"
           transform="translate(45.57178,306.06784)"><g
             id="g80"><text
               transform="translate(24.62857,25.875774)"
               style="font-variant:normal;font-weight:normal;font-size:18.66666603px;font-family:Arial;-inkscape-font-specification:ArialMT;writing-mode:lr-tb;fill:#000000;fill-opacity:1;fill-rule:nonzero;stroke:none"
               id="text84"><tspan
                 x="0 10.378666 20.757332 31.136 40.469334 45.639999 50.810665 61.189331 67.405334 72.575996 82.954666 93.333328 103.712 113.04533 122.37866 127.54933 131.69333 142.07199 147.24266 156.57599 166.95467 182.504 192.88266 197.02666 207.40532 216.73866"
                 y="0"
                 sodipodi:role="line"
                 id="tspan82">Look for peaks in samples </tspan></text>
<text
               transform="translate(64.584015,47.875774)"
               style="font-variant:normal;font-weight:normal;font-size:18.66666603px;font-family:'Courier New';-inkscape-font-specification:CourierNew;writing-mode:lr-tb;fill:#000000;fill-opacity:1;fill-rule:nonzero;stroke:none"
               id="text88"><tspan
                 x="0 11.2 22.4 33.599998 44.799999 55.999996 67.199997 78.399994 89.599998 100.8 111.99999 123.2"
                 y="0"
                 sodipodi:role="line"
                 id="tspan86">Peak Picking</tspan></text>
</g></g></g><g
         transform="matrix(0.0019685,0,0,-0.0019685,1.9694148,540.98471)"
         id="g92"><g
           id="g94"><path
             d="m 16128,154037.08 v 0 c 0,-2328.47 1887.605,-4216.08 4216.084,-4216.08 h 95379.826 c 1118.18,0 2190.56,444.19 2981.23,1234.86 790.67,790.67 1234.86,1863.04 1234.86,2981.22 v 16863.84 c 0,2328.47 -1887.6,4216.08 -4216.09,4216.08 H 20344.084 C 18015.605,175117 16128,173229.39 16128,170900.92 Z"
             style="fill:#b6d7a8;fill-opacity:1;fill-rule:evenodd;stroke:none"
             id="path96"
             inkscape:connector-curvature="0" /></g><path
           d="m 16128,154037.08 v 0 c 0,-2328.47 1887.605,-4216.08 4216.084,-4216.08 h 95379.826 c 1118.18,0 2190.56,444.19 2981.23,1234.86 790.67,790.67 1234.86,1863.04 1234.86,2981.22 v 16863.84 c 0,2328.47 -1887.6,4216.08 -4216.09,4216.08 H 20344.084 C 18015.605,175117 16128,173229.39 16128,170900.92 Z"
           style="fill:none;stroke:#2388db;stroke-width:381;stroke-linecap:butt;stroke-linejoin:round;stroke-miterlimit:8;stroke-dasharray:none;stroke-opacity:1"
           id="path98"
           inkscape:connector-curvature="0" /></g><g
         id="g100"
         transform="matrix(0.7499985,0,0,-0.7499985,1.9694148,540.98471)"><g
           id="g102"
           transform="translate(45.57178,396.47205)"><g
             id="g104"><text
               transform="translate(36.03366,25.875774)"
               style="font-variant:normal;font-weight:normal;font-size:18.66666603px;font-family:Arial;-inkscape-font-specification:ArialMT;writing-mode:lr-tb;fill:#000000;fill-opacity:1;fill-rule:nonzero;stroke:none"
               id="text108"><tspan
                 x="0 12.431999 16.576 20.719999 31.098665 41.477333 46.647999 51.818665 62.19733 72.575996 77.746666 81.890663 86.03466 95.367996 100.53867 105.70933 116.088 121.25866 126.42933 131.59999 141.97867 152.35733 157.528 167.90666 174.12267 184.50133"
                 y="0"
                 sodipodi:role="line"
                 id="tspan106">Align the list of features</tspan></text>
<text
               transform="translate(53.18216,47.875774)"
               style="font-variant:normal;font-weight:normal;font-size:18.66666603px;font-family:'Courier New';-inkscape-font-specification:CourierNew;writing-mode:lr-tb;fill:#000000;fill-opacity:1;fill-rule:nonzero;stroke:none"
               id="text112"><tspan
                 x="0 11.2 22.4 33.599998 44.799999 55.999996 67.199997 78.399994 89.599998 100.8 111.99999 123.2 134.39999 145.59999"
                 y="0"
                 sodipodi:role="line"
                 id="tspan110">Group &amp; retcor</tspan></text>
</g></g></g><g
         transform="matrix(0.0019685,0,0,-0.0019685,1.9694148,540.98471)"
         id="g116"><g
           id="g118"><path
             d="m 16128,201157.08 v 0 c 0,-2328.47 1887.605,-4216.08 4216.084,-4216.08 H 239575.92 c 1118.18,0 2190.55,444.19 2981.22,1234.86 790.67,790.67 1234.86,1863.04 1234.86,2981.22 v 16863.84 c 0,2328.47 -1887.61,4216.08 -4216.08,4216.08 H 20344.084 C 18015.605,222237 16128,220349.39 16128,218020.92 Z"
             style="fill:#b4a7d6;fill-opacity:1;fill-rule:evenodd;stroke:none"
             id="path120"
             inkscape:connector-curvature="0" /></g><path
           d="m 16128,201157.08 v 0 c 0,-2328.47 1887.605,-4216.08 4216.084,-4216.08 H 239575.92 c 1118.18,0 2190.55,444.19 2981.22,1234.86 790.67,790.67 1234.86,1863.04 1234.86,2981.22 v 16863.84 c 0,2328.47 -1887.61,4216.08 -4216.08,4216.08 H 20344.084 C 18015.605,222237 16128,220349.39 16128,218020.92 Z"
           style="fill:none;stroke:#b4a7d6;stroke-width:381;stroke-linecap:butt;stroke-linejoin:round;stroke-miterlimit:8;stroke-dasharray:none;stroke-opacity:1"
           id="path122"
           inkscape:connector-curvature="0" /></g><g
         id="g124"
         transform="matrix(0.7499985,0,0,-0.7499985,1.9694148,540.98471)"><g
           id="g126"
           transform="translate(45.57178,520.1466)"><g
             id="g128"><text
               transform="translate(96.43796,36.875774)"
               style="font-variant:normal;font-weight:normal;font-size:18.66666603px;font-family:Arial;-inkscape-font-specification:ArialMT;writing-mode:lr-tb;fill:#000000;fill-opacity:1;fill-rule:nonzero;stroke:none"
               id="text132"><tspan
                 x="0 14.504 24.882666 30.053331 35.223999 45.602665 50.773331 64.250664 79.799995 84.970665 98.447998 108.82666 119.20533 125.42133 135.79999 140.97066 146.14133 156.51999 166.89867 172.06932 181.40266 191.78133 195.92532 206.30399 221.85333 232.23199 241.56532 246.73599 252.952 263.33066 273.70932 279.92532 290.30399 299.63733 310.01599 320.39465 325.56531 330.73599 335.90665 346.28531 356.664 361.83466 372.21332 378.42932 388.80798"
                 y="0"
                 sodipodi:role="line"
                 id="tspan130">Get a DM where the columns represent features</tspan></text>
</g></g></g><g
         transform="matrix(0.0019685,0,0,-0.0019685,1.9694148,540.98471)"
         id="g136"><g
           id="g138"><path
             d="m 139977,119593.09 v 0 c 0,-2328.49 1887.61,-4216.09 4216.08,-4216.09 h 95379.84 c 1118.18,0 2190.55,444.2 2981.22,1234.86 790.67,790.67 1234.86,1863.05 1234.86,2981.23 v 16863.83 c 0,2328.47 -1887.61,4216.08 -4216.08,4216.08 h -95379.84 c -2328.47,0 -4216.08,-1887.61 -4216.08,-4216.08 z"
             style="fill:#b6d7a8;fill-opacity:1;fill-rule:evenodd;stroke:none"
             id="path140"
             inkscape:connector-curvature="0" /></g><path
           d="m 139977,119593.09 v 0 c 0,-2328.49 1887.61,-4216.09 4216.08,-4216.09 h 95379.84 c 1118.18,0 2190.55,444.2 2981.22,1234.86 790.67,790.67 1234.86,1863.05 1234.86,2981.23 v 16863.83 c 0,2328.47 -1887.61,4216.08 -4216.08,4216.08 h -95379.84 c -2328.47,0 -4216.08,-1887.61 -4216.08,-4216.08 z"
           style="fill:none;stroke:#2388db;stroke-width:381;stroke-linecap:butt;stroke-linejoin:round;stroke-miterlimit:8;stroke-dasharray:none;stroke-opacity:1"
           id="path142"
           inkscape:connector-curvature="0" /></g><g
         id="g144"
         transform="matrix(0.7499985,0,0,-0.7499985,1.9694148,540.98471)"><g
           id="g146"
           transform="translate(370.63477,306.06784)"><g
             id="g148"><text
               transform="translate(21.007545,25.875774)"
               style="font-variant:normal;font-weight:normal;font-size:18.66666603px;font-family:Arial;-inkscape-font-specification:ArialMT;writing-mode:lr-tb;fill:#000000;fill-opacity:1;fill-rule:nonzero;stroke:none"
               id="text152"><tspan
                 x="0 12.431999 16.576 20.719999 31.098665 41.477333 46.647999 51.818665 62.19733 72.575996 77.746666 82.917328 93.295998 97.439995 101.584 106.75466 116.088 126.46666 132.68266 143.06133 158.61066 163.78133 174.15999 180.37599 190.75465 195.92532 200.06932 204.21333 214.592"
                 y="0"
                 sodipodi:role="line"
                 id="tspan150">Align the full chrom profiles</tspan></text>
<text
               transform="translate(110.19144,47.875774)"
               style="font-variant:normal;font-weight:normal;font-size:18.66666603px;font-family:'Courier New';-inkscape-font-specification:CourierNew;writing-mode:lr-tb;fill:#000000;fill-opacity:1;fill-rule:nonzero;stroke:none"
               id="text156"><tspan
                 x="0 11.2 22.4 33.599998"
                 y="0"
                 sodipodi:role="line"
                 id="tspan154">Warp</tspan></text>
</g></g></g><g
         transform="matrix(0.0019685,0,0,-0.0019685,1.9694148,540.98471)"
         id="g160"><g
           id="g162"><path
             d="m 139977,154037.08 v 0 c 0,-2328.47 1887.61,-4216.08 4216.08,-4216.08 h 95379.84 c 1118.18,0 2190.55,444.19 2981.22,1234.86 790.67,790.67 1234.86,1863.04 1234.86,2981.22 v 16863.84 c 0,2328.47 -1887.61,4216.08 -4216.08,4216.08 h -95379.84 c -2328.47,0 -4216.08,-1887.61 -4216.08,-4216.08 z"
             style="fill:#ea9999;fill-opacity:1;fill-rule:evenodd;stroke:none"
             id="path164"
             inkscape:connector-curvature="0" /></g><path
           d="m 139977,154037.08 v 0 c 0,-2328.47 1887.61,-4216.08 4216.08,-4216.08 h 95379.84 c 1118.18,0 2190.55,444.19 2981.22,1234.86 790.67,790.67 1234.86,1863.04 1234.86,2981.22 v 16863.84 c 0,2328.47 -1887.61,4216.08 -4216.08,4216.08 h -95379.84 c -2328.47,0 -4216.08,-1887.61 -4216.08,-4216.08 z"
           style="fill:none;stroke:#2388db;stroke-width:381;stroke-linecap:butt;stroke-linejoin:round;stroke-miterlimit:8;stroke-dasharray:none;stroke-opacity:1"
           id="path166"
           inkscape:connector-curvature="0" /></g><g
         id="g168"
         transform="matrix(0.7499985,0,0,-0.7499985,1.9694148,540.98471)"><g
           id="g170"
           transform="translate(370.63477,396.47205)"><g
             id="g172"><text
               transform="translate(24.62857,25.875774)"
               style="font-variant:normal;font-weight:normal;font-size:18.66666603px;font-family:Arial;-inkscape-font-specification:ArialMT;writing-mode:lr-tb;fill:#000000;fill-opacity:1;fill-rule:nonzero;stroke:none"
               id="text176"><tspan
                 x="0 10.378666 20.757332 31.136 40.469334 45.639999 50.810665 61.189331 67.405334 72.575996 82.954666 93.333328 103.712 113.04533 122.37866 127.54933 131.69333 142.07199 147.24266 156.57599 166.95467 182.504 192.88266 197.02666 207.40532 216.73866"
                 y="0"
                 sodipodi:role="line"
                 id="tspan174">Look for peaks in samples </tspan></text>
<text
               transform="translate(64.584015,47.875774)"
               style="font-variant:normal;font-weight:normal;font-size:18.66666603px;font-family:'Courier New';-inkscape-font-specification:CourierNew;writing-mode:lr-tb;fill:#000000;fill-opacity:1;fill-rule:nonzero;stroke:none"
               id="text180"><tspan
                 x="0 11.2 22.4 33.599998 44.799999 55.999996 67.199997 78.399994 89.599998 100.8 111.99999 123.2"
                 y="0"
                 sodipodi:role="line"
                 id="tspan178">Peak Picking</tspan></text>
</g></g></g><g
         transform="matrix(0.0019685,0,0,-0.0019685,1.9694148,540.98471)"
         id="g184"><g
           id="g186"><path
             d="m 16128,242142.08 v 0 c 0,-2328.47 1887.605,-4216.08 4216.084,-4216.08 H 239575.92 c 1118.18,0 2190.55,444.19 2981.22,1234.86 790.67,790.67 1234.86,1863.04 1234.86,2981.22 v 16863.84 c 0,2328.47 -1887.61,4216.08 -4216.08,4216.08 H 20344.084 C 18015.605,263222 16128,261334.39 16128,259005.92 Z"
             style="fill:#efefef;fill-opacity:1;fill-rule:evenodd;stroke:none"
             id="path188"
             inkscape:connector-curvature="0" /></g><path
           d="m 16128,242142.08 v 0 c 0,-2328.47 1887.605,-4216.08 4216.084,-4216.08 H 239575.92 c 1118.18,0 2190.55,444.19 2981.22,1234.86 790.67,790.67 1234.86,1863.04 1234.86,2981.22 v 16863.84 c 0,2328.47 -1887.61,4216.08 -4216.08,4216.08 H 20344.084 C 18015.605,263222 16128,261334.39 16128,259005.92 Z"
           style="fill:none;stroke:#b4a7d6;stroke-width:381;stroke-linecap:butt;stroke-linejoin:round;stroke-miterlimit:8;stroke-dasharray:none;stroke-opacity:1"
           id="path190"
           inkscape:connector-curvature="0" /></g><g
         id="g192"
         transform="matrix(0.7499985,0,0,-0.7499985,1.9694148,540.98471)"><g
           id="g194"
           transform="translate(45.57178,627.71875)"><g
             id="g196"><text
               transform="translate(181.45235,25.875774)"
               style="font-variant:normal;font-weight:normal;font-size:18.66666603px;font-family:Arial;-inkscape-font-specification:ArialMT;writing-mode:lr-tb;fill:#000000;fill-opacity:1;fill-rule:nonzero;stroke:none"
               id="text200"><tspan
                 x="0 9.333333 19.712 23.855999 34.234665 39.405331 44.576 54.954666 65.333328 70.503998 80.882668 87.098663 97.477333 106.81066 111.98133 116.12533 126.504 131.67467 141.008 151.38666 166.93599 177.31467 187.69333 198.07199 208.45065 218.82933"
                 y="0"
                 sodipodi:role="line"
                 id="tspan198">Join features in compounds</tspan></text>
<text
               transform="translate(238.5213,47.875774)"
               style="font-variant:normal;font-weight:normal;font-size:18.66666603px;font-family:'Courier New';-inkscape-font-specification:CourierNew;writing-mode:lr-tb;fill:#000000;fill-opacity:1;fill-rule:nonzero;stroke:none"
               id="text204"><tspan
                 x="0 11.2 22.4 33.599998 44.799999 55.999996 67.199997 78.399994 89.599998 100.8"
                 y="0"
                 sodipodi:role="line"
                 id="tspan202">Annotation</tspan></text>
</g></g></g><g
         transform="matrix(0.0019685,0,0,-0.0019685,1.9694148,540.98471)"
         id="g208"><g
           id="g210"><path
             d="m 254232,154037.08 v 0 c 0,-2328.47 1887.61,-4216.08 4216.08,-4216.08 h 95379.82 c 1118.2,0 2190.57,444.19 2981.22,1234.86 790.68,790.67 1234.88,1863.04 1234.88,2981.22 v 16863.84 c 0,2328.47 -1887.6,4216.08 -4216.1,4216.08 h -95379.82 c -2328.47,0 -4216.08,-1887.61 -4216.08,-4216.08 z"
             style="fill:#ffd966;fill-opacity:1;fill-rule:evenodd;stroke:none"
             id="path212"
             inkscape:connector-curvature="0" /></g><path
           d="m 254232,154037.08 v 0 c 0,-2328.47 1887.61,-4216.08 4216.08,-4216.08 h 95379.82 c 1118.2,0 2190.57,444.19 2981.22,1234.86 790.68,790.67 1234.88,1863.04 1234.88,2981.22 v 16863.84 c 0,2328.47 -1887.6,4216.08 -4216.1,4216.08 h -95379.82 c -2328.47,0 -4216.08,-1887.61 -4216.08,-4216.08 z"
           style="fill:none;stroke:#2388db;stroke-width:381;stroke-linecap:butt;stroke-linejoin:round;stroke-miterlimit:8;stroke-dasharray:none;stroke-opacity:1"
           id="path214"
           inkscape:connector-curvature="0" /></g><g
         id="g216"
         transform="matrix(0.7499985,0,0,-0.7499985,1.9694148,540.98471)"><g
           id="g218"
           transform="translate(670.51666,396.47205)"><g
             id="g220"><text
               transform="translate(14.790314,14.875775)"
               style="font-variant:normal;font-weight:normal;font-size:18.66666603px;font-family:Arial;-inkscape-font-specification:ArialMT;writing-mode:lr-tb;fill:#000000;fill-opacity:1;fill-rule:nonzero;stroke:none"
               id="text224"><tspan
                 x="0 13.477333 22.810665 33.189331 43.530666 59.079998 69.458664 73.602661 78.773331 82.917328 92.250664 102.62933 108.84533 112.98933 123.368 128.53867 138.91733 144.088 159.63733 170.01599 175.18666 185.56532 195.944 206.32266 215.65599 220.82666 225.99733 236.37599"
                 y="0"
                 sodipodi:role="line"
                 id="tspan222">Use multivariate methods to </tspan></text>
<text
               transform="translate(13.742722,36.875774)"
               style="font-variant:normal;font-weight:normal;font-size:18.66666603px;font-family:Arial;-inkscape-font-specification:ArialMT;writing-mode:lr-tb;fill:#000000;fill-opacity:1;fill-rule:nonzero;stroke:none"
               id="text228"><tspan
                 x="0 4.1440001 14.522666 24.901333 34.234665 39.405331 44.576 54.954666 61.170666 66.341331 75.674667 86.053329 96.431999 105.76533 110.936 117.15199 127.53066 131.67467 136.84532 146.17867 156.55733 172.10666 182.48532 192.864 203.24266 213.62132 223.99998 229.17065"
                 y="0"
                 sodipodi:role="line"
                 id="tspan226">look for spectral components</tspan></text>
<text
               transform="translate(92.5672,58.875774)"
               style="font-variant:normal;font-weight:normal;font-size:18.66666603px;font-family:Arial;-inkscape-font-specification:ArialMT;writing-mode:lr-tb;fill:#000000;fill-opacity:1;fill-rule:nonzero;stroke:none"
               id="text232"><tspan
                 x="0 12.431999 17.602667 27.981333 33.152 38.322666 53.871998 67.349335"
                 y="0"
                 sodipodi:role="line"
                 id="tspan230">E.g. MCR</tspan></text>
</g></g></g><g
         transform="matrix(0.0019685,0,0,-0.0019685,1.9694148,540.98471)"
         id="g236"><g
           id="g238"><path
             d="m 254232,201157.08 v 0 c 0,-2328.47 1887.61,-4216.08 4216.08,-4216.08 h 95379.82 c 1118.2,0 2190.57,444.19 2981.22,1234.86 790.68,790.67 1234.88,1863.04 1234.88,2981.22 v 16863.84 c 0,2328.47 -1887.6,4216.08 -4216.1,4216.08 h -95379.82 c -2328.47,0 -4216.08,-1887.61 -4216.08,-4216.08 z"
             style="fill:#b4a7d6;fill-opacity:1;fill-rule:evenodd;stroke:none"
             id="path240"
             inkscape:connector-curvature="0" /></g><path
           d="m 254232,201157.08 v 0 c 0,-2328.47 1887.61,-4216.08 4216.08,-4216.08 h 95379.82 c 1118.2,0 2190.57,444.19 2981.22,1234.86 790.68,790.67 1234.88,1863.04 1234.88,2981.22 v 16863.84 c 0,2328.47 -1887.6,4216.08 -4216.1,4216.08 h -95379.82 c -2328.47,0 -4216.08,-1887.61 -4216.08,-4216.08 z"
           style="fill:none;stroke:#2388db;stroke-width:381;stroke-linecap:butt;stroke-linejoin:round;stroke-miterlimit:8;stroke-dasharray:none;stroke-opacity:1"
           id="path242"
           inkscape:connector-curvature="0" /></g><g
         id="g244"
         transform="matrix(0.7499985,0,0,-0.7499985,1.9694148,540.98471)"><g
           id="g246"
           transform="translate(670.51666,520.1466)"><g
             id="g248"><text
               transform="translate(16.329819,36.875774)"
               style="font-variant:normal;font-weight:normal;font-size:18.66666603px;font-family:Arial;-inkscape-font-specification:ArialMT;writing-mode:lr-tb;fill:#000000;fill-opacity:1;fill-rule:nonzero;stroke:none"
               id="text252"><tspan
                 x="0 14.504 24.882666 30.053331 35.223999 45.602665 50.773331 60.106663 70.485329 86.03466 96.41333 106.792 117.17066 127.54933 137.92799 143.09866 148.26933 158.64799 169.02666 178.36 188.73866 199.11732 204.28799 217.76532"
                 y="0"
                 sodipodi:role="line"
                 id="tspan250">Get a component based DM</tspan></text>
</g></g></g><g
         transform="matrix(0.0019685,0,0,-0.0019685,1.9694148,540.98471)"
         id="g256"><g
           id="g258"><path
             d="m 254232,118716.09 v 0 c 0,-2328.49 1887.61,-4216.09 4216.08,-4216.09 h 95379.82 c 1118.2,0 2190.57,444.2 2981.22,1234.86 790.68,790.67 1234.88,1863.05 1234.88,2981.23 v 16863.83 c 0,2328.47 -1887.6,4216.08 -4216.1,4216.08 h -95379.82 c -2328.47,0 -4216.08,-1887.61 -4216.08,-4216.08 z"
             style="fill:#b6d7a8;fill-opacity:1;fill-rule:evenodd;stroke:none"
             id="path260"
             inkscape:connector-curvature="0" /></g><path
           d="m 254232,118716.09 v 0 c 0,-2328.49 1887.61,-4216.09 4216.08,-4216.09 h 95379.82 c 1118.2,0 2190.57,444.2 2981.22,1234.86 790.68,790.67 1234.88,1863.05 1234.88,2981.23 v 16863.83 c 0,2328.47 -1887.6,4216.08 -4216.1,4216.08 h -95379.82 c -2328.47,0 -4216.08,-1887.61 -4216.08,-4216.08 z"
           style="fill:none;stroke:#2388db;stroke-width:381;stroke-linecap:butt;stroke-linejoin:round;stroke-miterlimit:8;stroke-dasharray:none;stroke-opacity:1"
           id="path262"
           inkscape:connector-curvature="0" /></g><g
         id="g264"
         transform="matrix(0.7499985,0,0,-0.7499985,1.9694148,540.98471)"><g
           id="g266"
           transform="translate(670.51666,303.76602)"><g
             id="g268"><text
               transform="translate(21.007545,25.875774)"
               style="font-variant:normal;font-weight:normal;font-size:18.66666603px;font-family:Arial;-inkscape-font-specification:ArialMT;writing-mode:lr-tb;fill:#000000;fill-opacity:1;fill-rule:nonzero;stroke:none"
               id="text272"><tspan
                 x="0 12.431999 16.576 20.719999 31.098665 41.477333 46.647999 51.818665 62.19733 72.575996 77.746666 82.917328 93.295998 97.439995 101.584 106.75466 116.088 126.46666 132.68266 143.06133 158.61066 163.78133 174.15999 180.37599 190.75465 195.92532 200.06932 204.21333 214.592"
                 y="0"
                 sodipodi:role="line"
                 id="tspan270">Align the full chrom profiles</tspan></text>
<text
               transform="translate(110.19144,47.875774)"
               style="font-variant:normal;font-weight:normal;font-size:18.66666603px;font-family:'Courier New';-inkscape-font-specification:CourierNew;writing-mode:lr-tb;fill:#000000;fill-opacity:1;fill-rule:nonzero;stroke:none"
               id="text276"><tspan
                 x="0 11.2 22.4 33.599998"
                 y="0"
                 sodipodi:role="line"
                 id="tspan274">Warp</tspan></text>
</g></g></g><g
         transform="matrix(0.0019685,0,0,-0.0019685,1.9694148,540.98471)"
         id="g280"><g
           id="g282"><g
             id="g284"><path
               d="M 191471,82688 68039,115376"
               style="fill:#000000;fill-opacity:0;fill-rule:evenodd;stroke:none"
               id="path286"
               inkscape:connector-curvature="0" /></g></g><path
           d="M 191471,82688 74668.47,113620.34"
           style="fill:none;stroke:#2388db;stroke-width:1143;stroke-linecap:butt;stroke-linejoin:round;stroke-miterlimit:8;stroke-dasharray:none;stroke-opacity:1"
           id="path288"
           inkscape:connector-curvature="0" /><path
           d="m 74185.16,111795.33 -4530.89,3152.9 5497.51,497.13 z"
           style="fill:#2388db;fill-opacity:1;fill-rule:evenodd;stroke:#2388db;stroke-width:1143;stroke-linecap:butt;stroke-linejoin:miter;stroke-miterlimit:10;stroke-dasharray:none;stroke-opacity:1"
           id="path290"
           inkscape:connector-curvature="0" /></g><g
         transform="matrix(0.0019685,0,0,-0.0019685,1.9694148,540.98471)"
         id="g292"><g
           id="g294"><g
             id="g296"><path
               d="m 191471,82688 408,32688"
               style="fill:#000000;fill-opacity:0;fill-rule:evenodd;stroke:none"
               id="path298"
               inkscape:connector-curvature="0" /></g></g><path
           d="m 191471,82688 322.4,25830.53"
           style="fill:none;stroke:#2388db;stroke-width:1143;stroke-linecap:butt;stroke-linejoin:round;stroke-miterlimit:8;stroke-dasharray:none;stroke-opacity:1"
           id="path300"
           inkscape:connector-curvature="0" /><path
           d="m 189905.62,108542.09 1952.52,5163.09 1823.05,-5210.21 z"
           style="fill:#2388db;fill-opacity:1;fill-rule:evenodd;stroke:#2388db;stroke-width:1143;stroke-linecap:butt;stroke-linejoin:miter;stroke-miterlimit:10;stroke-dasharray:none;stroke-opacity:1"
           id="path302"
           inkscape:connector-curvature="0" /></g><g
         transform="matrix(0.0019685,0,0,-0.0019685,1.9694148,540.98471)"
         id="g304"><g
           id="g306"><g
             id="g308"><path
               d="m 191471,82688 114672,31812"
               style="fill:#000000;fill-opacity:0;fill-rule:evenodd;stroke:none"
               id="path310"
               inkscape:connector-curvature="0" /></g></g><path
           d="m 191471,82688 108063.6,29978.71"
           style="fill:none;stroke:#2388db;stroke-width:1143;stroke-linecap:butt;stroke-linejoin:round;stroke-miterlimit:8;stroke-dasharray:none;stroke-opacity:1"
           id="path312"
           inkscape:connector-curvature="0" /><path
           d="m 299029.9,114485.93 5502.94,-432.61 -4493.59,-3205.84 z"
           style="fill:#2388db;fill-opacity:1;fill-rule:evenodd;stroke:#2388db;stroke-width:1143;stroke-linecap:butt;stroke-linejoin:miter;stroke-miterlimit:10;stroke-dasharray:none;stroke-opacity:1"
           id="path314"
           inkscape:connector-curvature="0" /></g><g
         transform="matrix(0.0019685,0,0,-0.0019685,1.9694148,540.98471)"
         id="g316"><g
           id="g318"><g
             id="g320"><path
               d="m 68034,140673 v 9144"
               style="fill:#000000;fill-opacity:0;fill-rule:evenodd;stroke:none"
               id="path322"
               inkscape:connector-curvature="0" /></g></g><path
           d="m 68034,140673 v 2286"
           style="fill:none;stroke:#2388db;stroke-width:1143;stroke-linecap:butt;stroke-linejoin:round;stroke-miterlimit:8;stroke-dasharray:none;stroke-opacity:1"
           id="path324"
           inkscape:connector-curvature="0" /><path
           d="M 66146.07,142959 68034,148146.05 69921.93,142959 Z"
           style="fill:#2388db;fill-opacity:1;fill-rule:evenodd;stroke:#2388db;stroke-width:1143;stroke-linecap:butt;stroke-linejoin:miter;stroke-miterlimit:10;stroke-dasharray:none;stroke-opacity:1"
           id="path326"
           inkscape:connector-curvature="0" /></g><g
         transform="matrix(0.0019685,0,0,-0.0019685,1.9694148,540.98471)"
         id="g328"><g
           id="g330"><g
             id="g332"><path
               d="m 191883,140677 v 9144"
               style="fill:#000000;fill-opacity:0;fill-rule:evenodd;stroke:none"
               id="path334"
               inkscape:connector-curvature="0" /></g></g><path
           d="m 191883,140677 v 2286"
           style="fill:none;stroke:#2388db;stroke-width:1143;stroke-linecap:butt;stroke-linejoin:round;stroke-miterlimit:8;stroke-dasharray:none;stroke-opacity:1"
           id="path336"
           inkscape:connector-curvature="0" /><path
           d="m 189995.06,142963 1887.94,5187.05 1887.94,-5187.05 z"
           style="fill:#2388db;fill-opacity:1;fill-rule:evenodd;stroke:#2388db;stroke-width:1143;stroke-linecap:butt;stroke-linejoin:miter;stroke-miterlimit:10;stroke-dasharray:none;stroke-opacity:1"
           id="path338"
           inkscape:connector-curvature="0" /></g><g
         transform="matrix(0.0019685,0,0,-0.0019685,1.9694148,540.98471)"
         id="g340"><g
           id="g342"><g
             id="g344"><path
               d="m 306138,139796 v 10020"
               style="fill:#000000;fill-opacity:0;fill-rule:evenodd;stroke:none"
               id="path346"
               inkscape:connector-curvature="0" /></g></g><path
           d="m 306138,139796 v 3162"
           style="fill:none;stroke:#2388db;stroke-width:1143;stroke-linecap:butt;stroke-linejoin:round;stroke-miterlimit:8;stroke-dasharray:none;stroke-opacity:1"
           id="path348"
           inkscape:connector-curvature="0" /><path
           d="m 304250.06,142958 1887.94,5187.05 1887.94,-5187.05 z"
           style="fill:#2388db;fill-opacity:1;fill-rule:evenodd;stroke:#2388db;stroke-width:1143;stroke-linecap:butt;stroke-linejoin:miter;stroke-miterlimit:10;stroke-dasharray:none;stroke-opacity:1"
           id="path350"
           inkscape:connector-curvature="0" /></g><g
         transform="matrix(0.0019685,0,0,-0.0019685,1.9694148,540.98471)"
         id="g352"><g
           id="g354"><g
             id="g356"><path
               d="m 68034,175117 61932,21828"
               style="fill:#000000;fill-opacity:0;fill-rule:evenodd;stroke:none"
               id="path358"
               inkscape:connector-curvature="0" /></g></g><path
           d="m 68034,175117 55463.98,19548.34"
           style="fill:none;stroke:#2388db;stroke-width:1143;stroke-linecap:butt;stroke-linejoin:round;stroke-miterlimit:8;stroke-dasharray:none;stroke-opacity:1"
           id="path360"
           inkscape:connector-curvature="0" /><path
           d="m 122870.41,196445.9 5519.65,-56.34 -4264.51,-3504.79 z"
           style="fill:#2388db;fill-opacity:1;fill-rule:evenodd;stroke:#2388db;stroke-width:1143;stroke-linecap:butt;stroke-linejoin:miter;stroke-miterlimit:10;stroke-dasharray:none;stroke-opacity:1"
           id="path362"
           inkscape:connector-curvature="0" /></g><g
         transform="matrix(0.0019685,0,0,-0.0019685,1.9694148,540.98471)"
         id="g364"><g
           id="g366"><g
             id="g368"><path
               d="m 191883,175117 -61920,21828"
               style="fill:#000000;fill-opacity:0;fill-rule:evenodd;stroke:none"
               id="path370"
               inkscape:connector-curvature="0" /></g></g><path
           d="m 191883,175117 -55452.11,19547.95"
           style="fill:none;stroke:#2388db;stroke-width:1143;stroke-linecap:butt;stroke-linejoin:round;stroke-miterlimit:8;stroke-dasharray:none;stroke-opacity:1"
           id="path372"
           inkscape:connector-curvature="0" /><path
           d="m 135803.2,192884.4 -4264.3,3505.07 5519.66,56.01 z"
           style="fill:#2388db;fill-opacity:1;fill-rule:evenodd;stroke:#2388db;stroke-width:1143;stroke-linecap:butt;stroke-linejoin:miter;stroke-miterlimit:10;stroke-dasharray:none;stroke-opacity:1"
           id="path374"
           inkscape:connector-curvature="0" /></g><g
         transform="matrix(0.0019685,0,0,-0.0019685,1.9694148,540.98471)"
         id="g376"><g
           id="g378"><g
             id="g380"><path
               d="m 129960,222237 v 15684"
               style="fill:#000000;fill-opacity:0;fill-rule:evenodd;stroke:none"
               id="path382"
               inkscape:connector-curvature="0" /></g></g><path
           d="m 129960,222237 v 11112"
           style="fill:none;stroke:#2388db;stroke-width:762;stroke-linecap:butt;stroke-linejoin:round;stroke-miterlimit:8;stroke-dasharray:none;stroke-opacity:1"
           id="path384"
           inkscape:connector-curvature="0" /><path
           d="m 128701.38,233349 1258.62,3458.03 1258.62,-3458.03 z"
           style="fill:#2388db;fill-opacity:1;fill-rule:evenodd;stroke:#2388db;stroke-width:762;stroke-linecap:butt;stroke-linejoin:miter;stroke-miterlimit:10;stroke-dasharray:none;stroke-opacity:1"
           id="path386"
           inkscape:connector-curvature="0" /></g><g
         transform="matrix(0.0019685,0,0,-0.0019685,1.9694148,540.98471)"
         id="g388"><g
           id="g390"><g
             id="g392"><path
               d="m 306138,175117 v 21828"
               style="fill:#000000;fill-opacity:0;fill-rule:evenodd;stroke:none"
               id="path394"
               inkscape:connector-curvature="0" /></g></g><path
           d="m 306138,175117 v 14970"
           style="fill:none;stroke:#2388db;stroke-width:1143;stroke-linecap:butt;stroke-linejoin:round;stroke-miterlimit:8;stroke-dasharray:none;stroke-opacity:1"
           id="path396"
           inkscape:connector-curvature="0" /><path
           d="m 304250.06,190087 1887.94,5187.05 1887.94,-5187.05 z"
           style="fill:#2388db;fill-opacity:1;fill-rule:evenodd;stroke:#2388db;stroke-width:1143;stroke-linecap:butt;stroke-linejoin:miter;stroke-miterlimit:10;stroke-dasharray:none;stroke-opacity:1"
           id="path398"
           inkscape:connector-curvature="0" /></g><g
         transform="matrix(0.0019685,0,0,-0.0019685,1.9694148,540.98471)"
         id="g400"><g
           id="g402"><path
             d="m 254232,242142.08 v 0 c 0,-2328.47 1887.61,-4216.08 4216.08,-4216.08 h 95379.82 c 1118.2,0 2190.57,444.19 2981.22,1234.86 790.68,790.67 1234.88,1863.04 1234.88,2981.22 v 16863.84 c 0,2328.47 -1887.6,4216.08 -4216.1,4216.08 h -95379.82 c -2328.47,0 -4216.08,-1887.61 -4216.08,-4216.08 z"
             style="fill:#efefef;fill-opacity:1;fill-rule:evenodd;stroke:none"
             id="path404"
             inkscape:connector-curvature="0" /></g><path
           d="m 254232,242142.08 v 0 c 0,-2328.47 1887.61,-4216.08 4216.08,-4216.08 h 95379.82 c 1118.2,0 2190.57,444.19 2981.22,1234.86 790.68,790.67 1234.88,1863.04 1234.88,2981.22 v 16863.84 c 0,2328.47 -1887.6,4216.08 -4216.1,4216.08 h -95379.82 c -2328.47,0 -4216.08,-1887.61 -4216.08,-4216.08 z"
           style="fill:none;stroke:#2388db;stroke-width:381;stroke-linecap:butt;stroke-linejoin:round;stroke-miterlimit:8;stroke-dasharray:none;stroke-opacity:1"
           id="path406"
           inkscape:connector-curvature="0" /></g><g
         id="g408"
         transform="matrix(0.7499985,0,0,-0.7499985,1.9694148,540.98471)"><g
           id="g410"
           transform="translate(670.51666,627.71875)"><g
             id="g412"><text
               transform="translate(19.445267,25.875774)"
               style="font-variant:normal;font-weight:normal;font-size:18.66666603px;font-family:Arial;-inkscape-font-specification:ArialMT;writing-mode:lr-tb;fill:#000000;fill-opacity:1;fill-rule:nonzero;stroke:none"
               id="text416"><tspan
                 x="0 14.504 18.647999 27.981333 38.359997 43.530666 53.909332 64.287994 79.837334 90.215996 99.549332 104.71999 109.89066 120.26933 125.43999 134.77333 145.15199 160.70132 171.07999 181.45866 191.83733 202.21599 212.59467 217.76532"
                 y="0"
                 sodipodi:role="line"
                 id="tspan414">Give names to components</tspan></text>
<text
               transform="translate(75.98587,47.875774)"
               style="font-variant:normal;font-weight:normal;font-size:18.66666603px;font-family:'Courier New';-inkscape-font-specification:CourierNew;writing-mode:lr-tb;fill:#000000;fill-opacity:1;fill-rule:nonzero;stroke:none"
               id="text420"><tspan
                 x="0 11.2 22.4 33.599998 44.799999 55.999996 67.199997 78.399994 89.599998 100.8"
                 y="0"
                 sodipodi:role="line"
                 id="tspan418">Annotation</tspan></text>
</g></g></g><g
         transform="matrix(0.0019685,0,0,-0.0019685,1.9694148,540.98471)"
         id="g424"><g
           id="g426"><g
             id="g428"><path
               d="m 306138,222237 v 15684"
               style="fill:#000000;fill-opacity:0;fill-rule:evenodd;stroke:none"
               id="path430"
               inkscape:connector-curvature="0" /></g></g><path
           d="m 306138,222237 v 11112"
           style="fill:none;stroke:#2388db;stroke-width:762;stroke-linecap:butt;stroke-linejoin:round;stroke-miterlimit:8;stroke-dasharray:none;stroke-opacity:1"
           id="path432"
           inkscape:connector-curvature="0" /><path
           d="m 304879.38,233349 1258.62,3458.03 1258.62,-3458.03 z"
           style="fill:#2388db;fill-opacity:1;fill-rule:evenodd;stroke:#2388db;stroke-width:762;stroke-linecap:butt;stroke-linejoin:miter;stroke-miterlimit:10;stroke-dasharray:none;stroke-opacity:1"
           id="path434"
           inkscape:connector-curvature="0" /></g><g
         transform="matrix(0.0019685,0,0,-0.0019685,1.9694148,540.98471)"
         id="g436"><g
           id="g438"><g
             id="g440"><path
               d="M 191471,37773 V 57393"
               style="fill:#000000;fill-opacity:0;fill-rule:evenodd;stroke:none"
               id="path442"
               inkscape:connector-curvature="0" /></g></g><path
           d="M 191471,37773 V 50535"
           style="fill:none;stroke:#2388db;stroke-width:1143;stroke-linecap:butt;stroke-linejoin:round;stroke-miterlimit:8;stroke-dasharray:none;stroke-opacity:1"
           id="path444"
           inkscape:connector-curvature="0" /><path
           d="M 189583.06,50535 191471,55722.047 193358.94,50535 Z"
           style="fill:#2388db;fill-opacity:1;fill-rule:evenodd;stroke:#2388db;stroke-width:1143;stroke-linecap:butt;stroke-linejoin:miter;stroke-miterlimit:10;stroke-dasharray:none;stroke-opacity:1"
           id="path446"
           inkscape:connector-curvature="0" /></g><g
         transform="matrix(0.0019685,0,0,-0.0019685,1.9694148,540.98471)"
         id="g448"><g
           id="g450"><path
             d="m 254226,114215 h 103812 v 25296 H 254226 Z"
             style="fill:#666666;fill-opacity:0.59609997;fill-rule:evenodd;stroke:none"
             id="path452"
             inkscape:connector-curvature="0" /></g><path
           d="m 254226,114215 h 103812 v 25296 H 254226 Z"
           style="fill:none;stroke:#2388db;stroke-width:381;stroke-linecap:butt;stroke-linejoin:round;stroke-miterlimit:8;stroke-dasharray:none;stroke-opacity:1"
           id="path454"
           inkscape:connector-curvature="0" /></g></g></g></svg>